<?xml version="1.0" encoding="UTF-8"?>
<svg xmlns="http://www.w3.org/2000/svg" xml:space="preserve" width="24px" height="24px" version="1.1" style="shape-rendering:geometricPrecision; text-rendering:geometricPrecision; image-rendering:optimizeQuality; fill-rule:evenodd; clip-rule:evenodd"
viewBox="0 0 14.78 14.78"
 xmlns:xlink="http://www.w3.org/1999/xlink">
 <defs>
  <style type="text/css">
   <![CDATA[
    .str0 {stroke:white;stroke-width:1.43;stroke-miterlimit:22.9256}
    .fil0 {fill:none}
    .fil1 {fill:white}
   ]]>
  </style>
 </defs>
  <path class="fil0 str0" d="M2.59 0.72l9.6 0c1.03,0 1.87,0.84 1.87,1.87l0 9.6c0,1.03 -0.84,1.87 -1.87,1.87l-9.6 0c-1.03,0 -1.87,-0.84 -1.87,-1.87l0 -9.6c0,-1.03 0.84,-1.87 1.87,-1.87z"/>
   <path class="fil1" d="M6.67 2.78l1.43 0 0 4.18 1.25 -1.25 1.01 1.01 -2.98 2.98 -2.98 -2.98 1.01 -1.01 1.25 1.25 0 -4.18zm-2.29 6.4l0 1.57 6 -0.01 0 -1.56 1.43 0 0 2.28c-0,0.39 -0.32,0.71 -0.72,0.71l-7.43 0.01c-0.39,0 -0.72,-0.32 -0.72,-0.72l0 -2.28 1.43 0z"/>
</svg>
