<?xml version="1.0" encoding="UTF-8"?>
<svg xmlns="http://www.w3.org/2000/svg" xml:space="preserve" width="4.7362mm" height="4.7362mm" version="1.1" style="shape-rendering:geometricPrecision; text-rendering:geometricPrecision; image-rendering:optimizeQuality; fill-rule:evenodd; clip-rule:evenodd"
viewBox="0 0 15.54 15.54"
 xmlns:xlink="http://www.w3.org/1999/xlink"
 xmlns:xodm="http://www.corel.com/coreldraw/odm/2003">
 <defs>
  <style type="text/css">
   <![CDATA[
    .str0 {stroke:white;stroke-width:1.5;stroke-miterlimit:22.9256}
    .fil0 {fill:none}
    .fil1 {fill:white}
   ]]>
  </style>
 </defs>
  <path class="fil0 str0" d="M2.72 0.75l10.1 0c1.08,0 1.97,0.89 1.97,1.97l0 10.1c0,1.08 -0.89,1.97 -1.97,1.97l-10.1 0c-1.08,0 -1.97,-0.89 -1.97,-1.97l0 -10.1c0,-1.08 0.89,-1.97 1.97,-1.97z"/>
  <path class="fil1" d="M4.19 2.78l7.15 0c0.78,0 1.41,0.63 1.41,1.41l0 7.15c0,0.77 -0.64,1.41 -1.41,1.41 -2.49,0 -4.99,0 -7.48,0 -0.88,0 -1.08,-0.7 -1.08,-1.41l0 -7.48c0,-0.85 0.69,-1.08 1.41,-1.08zm4.33 1.5l0 6.96 2.73 0 0 -6.96 -2.73 0zm-1.5 6.96l0 -6.96 -2.73 0 0 6.96 2.73 0z"/>
</svg>
