<?xml version="1.0" encoding="UTF-8"?>
<svg
    xmlns="http://www.w3.org/2000/svg"
    width="17.974mm"
    height="4.5124mm"
    version="1.1"
    style="fill-rule:evenodd;clip-rule:evenodd;fill:white"
    viewBox="0 0 184.12 46.22"
>
    <path
        d="M6.15 0.96l31.53 0c3.38,0 6.15,2.77 6.15,6.15l0 31.53c0,3.38 -2.77,6.15 -6.15,6.15l-31.53 0c-3.38,0 -6.15,-2.77 -6.15,-6.15l0 -31.53c0,-3.38 2.77,-6.15 6.15,-6.15zm0.81 24.45l19.7 -0.07 -10.37 11.28 7.1 -0.12 12.26 -13.57 -12.26 -13.57 -7.1 -0.12 10.37 11.28 -19.7 0 0 4.87z"
    ></path>
    <path
        style="fill-rule: nonzero"
        d="M64.5 10.69c-0.44,1.94 -1.61,3.03 -3.52,3.03 -2.52,0 -3.78,-2.03 -3.78,-5.46 0,-3.38 1.26,-5.46 3.94,-5.46 1.54,0 2.92,1.05 3.36,2.8l3.24 0c-0.3,-3.13 -2.75,-5.6 -6.63,-5.6 -4.43,0 -7.21,3.2 -7.21,8.45 0,5.32 3.1,8.1 7.16,8.1 3.59,0 6.02,-2.33 6.67,-5.86l-3.24 0z"
    ></path>
    <path
        id="1"
        style="fill-rule: nonzero"
        d="M75.66 13.77c-2.68,0 -4.25,-1.63 -4.25,-5.3 0,-3.66 1.52,-5.6 4.25,-5.6 2.71,0 4.2,1.94 4.2,5.6 0,3.66 -1.87,5.3 -4.2,5.3zm0 2.78c4.76,0 7.4,-2.75 7.4,-8.07 0,-5.32 -2.64,-8.47 -7.4,-8.47 -4.76,0 -7.44,3.15 -7.44,8.4 0,5.23 2.68,8.14 7.44,8.14z"
    ></path>
    <polygon
        id="2"
        style="fill-rule: nonzero"
        points="99.06,16.01 99.06,0.51 94.4,0.51 91.6,11.88 88.8,0.51 84.04,0.51 84.04,16.01 87.05,16.01 87.05,5.44 89.92,16.01 93.14,16.01 96.03,5.39 96.03,16.01 "
    ></polygon>
    <path
        id="3"
        style="fill-rule: nonzero"
        d="M103.5 7.75l0 -4.55 3.08 0c1.87,0 2.64,0.96 2.64,2.24 0,1.35 -0.77,2.31 -2.64,2.31l-3.08 0zm0 8.26l0 -5.62 3.59 0c3.03,0 4.97,-2.03 4.97,-4.85 0,-2.8 -1.94,-5.02 -4.97,-5.02l-6.84 0 0 15.49 3.24 0z"
    ></path>
    <path
        id="4"
        style="fill-rule: nonzero"
        d="M118.9 10.15l-3.94 0 1.98 -6.16 0.02 0 1.94 6.16zm5.44 5.86l-5.46 -15.49 -3.76 0 -5.53 15.49 3.43 0 1.1 -3.2 5.72 0 0.98 3.2 3.52 0z"
    ></path>
    <path
        id="5"
        style="fill-rule: nonzero"
        d="M132.39 3.2c1.61,0 2.26,0.86 2.26,2.08 0,1.19 -0.65,2.05 -2.38,2.05l-4.06 0 0 -4.13 4.18 0zm4.88 12.81l0 -4.39c0,-1.82 -0.51,-2.59 -1.89,-3.03 1.49,-0.54 2.31,-1.94 2.31,-3.59 0,-2.57 -1.89,-4.48 -4.76,-4.48l-7.86 0 0 15.49 3.15 0 0 -6.07 3.45 0c1.87,0 2.43,0.58 2.43,2.08l0 3.99 3.17 0z"
    ></path>
    <polygon
        id="6"
        style="fill-rule: nonzero"
        points="141.79,16.01 141.79,0.51 138.55,0.51 138.55,16.01 "></polygon>
    <path
        id="7"
        style="fill-rule: nonzero"
        d="M154.77 5.09c-0.12,-2.96 -2.31,-5.09 -6.23,-5.09 -3.78,0 -5.67,1.98 -5.67,4.76 0,1.96 0.93,3.08 2.59,3.83 1.1,0.49 2.33,0.77 4.25,1.19 1.94,0.42 2.4,1.05 2.4,1.96 0,1.38 -1.1,2.19 -3.01,2.19 -2.08,0 -3.41,-0.98 -3.45,-2.57l-3.13 0c0.07,3.48 2.73,5.18 6.56,5.18 3.62,0 6.18,-1.52 6.18,-4.92 0,-2.19 -1.07,-3.15 -2.43,-3.76 -1.14,-0.51 -2.85,-0.93 -4.6,-1.35 -1.73,-0.42 -2.4,-0.98 -2.4,-1.96 0,-1.17 0.96,-1.82 2.78,-1.82 1.96,0 2.92,0.77 3.08,2.36l3.08 0z"
    ></path>
    <path
        id="8"
        style="fill-rule: nonzero"
        d="M163.12 13.77c-2.68,0 -4.25,-1.63 -4.25,-5.3 0,-3.66 1.52,-5.6 4.25,-5.6 2.71,0 4.2,1.94 4.2,5.6 0,3.66 -1.87,5.3 -4.2,5.3zm0 2.78c4.76,0 7.4,-2.75 7.4,-8.07 0,-5.32 -2.64,-8.47 -7.4,-8.47 -4.76,0 -7.44,3.15 -7.44,8.4 0,5.23 2.68,8.14 7.44,8.14z"
    ></path>
    <polygon
        id="9"
        style="fill-rule: nonzero"
        points="184.12,16.01 184.12,0.51 181.09,0.51 181.09,10.48 174.93,0.51 171.5,0.51 171.5,16.01 174.51,16.01 174.51,5.6 181.14,16.01 "
    ></polygon>
    <path
        style="fill-rule: nonzero"
        d="M77.92 45.34l0 -13.74 -10.66 0 0 4.27 5.66 0c0,3.2 -2.73,5.85 -6.24,5.85 -4.97,0 -7.08,-4.77 -7.08,-8.97 0,-6.08 2.85,-9.39 7.12,-9.39 2.93,0 5.5,1.92 5.77,4.31l5.39 0c-0.39,-5.12 -5.08,-8.74 -11.16,-8.74 -8.27,0 -12.59,6.04 -12.59,13.59 0,7.12 4.5,13.7 11.58,13.7 3.5,0 6.43,-1.27 7.66,-3.43l0.12 2.54 4.43 0z"
    ></path>
    <path
        id="1"
        style="fill-rule: nonzero"
        d="M91.86 24.21c2.66,0 3.73,1.42 3.73,3.43 0,1.96 -1.08,3.39 -3.93,3.39l-6.7 0 0 -6.81 6.89 0zm8.04 21.13l0 -7.24c0,-3 -0.85,-4.27 -3.12,-5 2.46,-0.89 3.81,-3.2 3.81,-5.93 0,-4.23 -3.12,-7.39 -7.85,-7.39l-12.97 0 0 25.56 5.2 0 0 -10.01 5.7 0c3.08,0 4,0.96 4,3.43l0 6.58 5.23 0z"
    ></path>
    <polygon
        id="2"
        style="fill-rule: nonzero"
        points="107.37,45.34 107.37,19.78 102.02,19.78 102.02,45.34 "></polygon>
    <path
        id="3"
        style="fill-rule: nonzero"
        d="M114.41 40.99l0 -16.78 3.96 0c5.12,0 7.12,2.31 7.12,8.08 0,5.77 -2,8.7 -6.66,8.7l-4.43 0zm5.5 4.35c6.62,0 11.05,-5.27 11.05,-13.05 0,-7.78 -4.93,-12.51 -11.86,-12.51l-9.89 0 0 25.56 10.7 0z"
    ></path>
</svg>
