<?xml version="1.0" encoding="UTF-8"?>
<svg xmlns="http://www.w3.org/2000/svg" xml:space="preserve" width="17.9779mm" height="4.5312mm" version="1.1" style="shape-rendering:geometricPrecision; text-rendering:geometricPrecision; image-rendering:optimizeQuality; fill-rule:evenodd; clip-rule:evenodd"
viewBox="0 0 184.19 46.42"
 xmlns:xlink="http://www.w3.org/1999/xlink">
 <defs>
  <style type="text/css">
   <![CDATA[
    .fil0 {fill:white}
    .fil1 {fill:white;fill-rule:nonzero}
   ]]>
  </style>
 </defs>
  <path class="fil0" d="M6.15 1.2l31.53 0c3.38,0 6.15,2.77 6.15,6.15l0 31.53c0,3.38 -2.77,6.15 -6.15,6.15l-31.53 0c-3.38,0 -6.15,-2.77 -6.15,-6.15l0 -31.53c0,-3.38 2.77,-6.15 6.15,-6.15zm0.81 24.45l19.7 -0.07 -10.37 11.29 7.1 -0.12 12.26 -13.57 -12.26 -13.57 -7.1 -0.12 10.37 11.29 -19.7 0 0 4.87z"/>
  <path class="fil1" d="M64.55 10.69c-0.44,1.94 -1.61,3.03 -3.52,3.03 -2.52,0 -3.78,-2.03 -3.78,-5.46 0,-3.38 1.26,-5.46 3.94,-5.46 1.54,0 2.92,1.05 3.36,2.8l3.24 0c-0.3,-3.13 -2.75,-5.6 -6.63,-5.6 -4.43,0 -7.21,3.2 -7.21,8.45 0,5.32 3.1,8.1 7.16,8.1 3.59,0 6.02,-2.33 6.68,-5.86l-3.24 0z"/>
  <path id="1" class="fil1" d="M75.71 13.77c-2.68,0 -4.25,-1.63 -4.25,-5.3 0,-3.66 1.52,-5.6 4.25,-5.6 2.71,0 4.2,1.94 4.2,5.6 0,3.66 -1.87,5.3 -4.2,5.3zm0 2.78c4.76,0 7.4,-2.75 7.4,-8.08 0,-5.32 -2.64,-8.47 -7.4,-8.47 -4.76,0 -7.45,3.15 -7.45,8.4 0,5.23 2.68,8.15 7.45,8.15z"/>
  <polygon id="2" class="fil1" points="99.12,16.01 99.12,0.51 94.45,0.51 91.65,11.88 88.85,0.51 84.09,0.51 84.09,16.01 87.1,16.01 87.1,5.44 89.97,16.01 93.19,16.01 96.09,5.39 96.09,16.01 "/>
  <path id="3" class="fil1" d="M103.55 7.75l0 -4.55 3.08 0c1.87,0 2.64,0.96 2.64,2.24 0,1.35 -0.77,2.31 -2.64,2.31l-3.08 0zm0 8.26l0 -5.62 3.59 0c3.03,0 4.97,-2.03 4.97,-4.85 0,-2.8 -1.94,-5.02 -4.97,-5.02l-6.84 0 0 15.5 3.24 0z"/>
  <path id="4" class="fil1" d="M118.96 10.15l-3.94 0 1.98 -6.16 0.02 0 1.94 6.16zm5.44 5.86l-5.46 -15.5 -3.76 0 -5.53 15.5 3.43 0 1.1 -3.2 5.72 0 0.98 3.2 3.52 0z"/>
  <path id="5" class="fil1" d="M132.45 3.2c1.61,0 2.26,0.86 2.26,2.08 0,1.19 -0.65,2.05 -2.38,2.05l-4.06 0 0 -4.13 4.18 0zm4.88 12.81l0 -4.39c0,-1.82 -0.51,-2.59 -1.89,-3.03 1.49,-0.54 2.31,-1.94 2.31,-3.59 0,-2.57 -1.89,-4.48 -4.76,-4.48l-7.87 0 0 15.5 3.15 0 0 -6.07 3.45 0c1.87,0 2.43,0.58 2.43,2.08l0 3.99 3.17 0z"/>
  <polygon id="6" class="fil1" points="141.86,16.01 141.86,0.51 138.61,0.51 138.61,16.01 "/>
  <path id="7" class="fil1" d="M154.83 5.09c-0.12,-2.96 -2.31,-5.09 -6.23,-5.09 -3.78,0 -5.67,1.98 -5.67,4.76 0,1.96 0.93,3.08 2.59,3.83 1.1,0.49 2.33,0.77 4.25,1.19 1.94,0.42 2.4,1.05 2.4,1.96 0,1.38 -1.1,2.19 -3.01,2.19 -2.08,0 -3.41,-0.98 -3.45,-2.57l-3.13 0c0.07,3.48 2.73,5.18 6.56,5.18 3.62,0 6.19,-1.52 6.19,-4.93 0,-2.19 -1.07,-3.15 -2.43,-3.76 -1.14,-0.51 -2.85,-0.93 -4.6,-1.35 -1.73,-0.42 -2.4,-0.98 -2.4,-1.96 0,-1.17 0.96,-1.82 2.78,-1.82 1.96,0 2.92,0.77 3.08,2.36l3.08 0z"/>
  <path id="8" class="fil1" d="M163.19 13.77c-2.68,0 -4.25,-1.63 -4.25,-5.3 0,-3.66 1.52,-5.6 4.25,-5.6 2.71,0 4.2,1.94 4.2,5.6 0,3.66 -1.87,5.3 -4.2,5.3zm0 2.78c4.76,0 7.4,-2.75 7.4,-8.08 0,-5.32 -2.64,-8.47 -7.4,-8.47 -4.76,0 -7.45,3.15 -7.45,8.4 0,5.23 2.68,8.15 7.45,8.15z"/>
  <polygon id="9" class="fil1" points="184.19,16.01 184.19,0.51 181.16,0.51 181.16,10.48 175,0.51 171.57,0.51 171.57,16.01 174.58,16.01 174.58,5.6 181.21,16.01 "/>
  <path class="fil1" d="M77.57 45.54l0 -13.74 -10.66 0 0 4.27 5.66 0c0,3.2 -2.73,5.85 -6.24,5.85 -4.97,0 -7.08,-4.77 -7.08,-8.97 0,-6.08 2.85,-9.39 7.12,-9.39 2.93,0 5.5,1.92 5.77,4.31l5.39 0c-0.39,-5.12 -5.08,-8.74 -11.16,-8.74 -8.28,0 -12.59,6.04 -12.59,13.59 0,7.12 4.5,13.7 11.59,13.7 3.5,0 6.43,-1.27 7.66,-3.43l0.12 2.54 4.43 0z"/>
  <path id="1" class="fil1" d="M93.92 24.41c2.66,0 3.73,1.43 3.73,3.43 0,1.96 -1.08,3.39 -3.93,3.39l-6.7 0 0 -6.81 6.89 0zm8.05 21.13l0 -7.24c0,-3 -0.85,-4.27 -3.12,-5 2.46,-0.89 3.81,-3.2 3.81,-5.93 0,-4.23 -3.12,-7.39 -7.85,-7.39l-12.97 0 0 25.56 5.2 0 0 -10.01 5.7 0c3.08,0 4,0.96 4,3.43l0 6.58 5.24 0z"/>
  <polygon id="2" class="fil1" points="111.84,45.54 111.84,19.98 106.49,19.98 106.49,45.54 "/>
  <path id="3" class="fil1" d="M121.3 41.19l0 -16.78 3.97 0c5.12,0 7.12,2.31 7.12,8.08 0,5.77 -2,8.7 -6.66,8.7l-4.43 0zm5.5 4.35c6.62,0 11.05,-5.27 11.05,-13.05 0,-7.78 -4.93,-12.51 -11.86,-12.51l-9.89 0 0 25.56 10.7 0z"/>
</svg>
