<?xml version="1.0" encoding="UTF-8"?>
<svg xmlns="http://www.w3.org/2000/svg" xml:space="preserve" width="24px" height="24px" version="1.1" style="shape-rendering:geometricPrecision; text-rendering:geometricPrecision; image-rendering:optimizeQuality; fill-rule:evenodd; clip-rule:evenodd"
viewBox="0 0 15.8 15.8"
 xmlns:xlink="http://www.w3.org/1999/xlink">
 <defs>
  <style type="text/css">
   <![CDATA[
    .str0 {stroke:white;stroke-width:1.53;stroke-miterlimit:22.9256}
    .fil0 {fill:none}
    .fil1 {fill:white}
   ]]>
  </style>
 </defs>
  <path class="fil0 str0" d="M2.77 0.77l10.27 0c1.1,0 2,0.9 2,2l0 10.27c0,1.1 -0.9,2 -2,2l-10.27 0c-1.1,0 -2,-0.9 -2,-2l0 -10.27c0,-1.1 0.9,-2 2,-2z"/>
   <path class="fil1" d="M6.79 9.73l3.09 0 1.86 0 0 -4.78 -1.12 -1.26 -3.83 0 0 1.52 0 4.52zm5.54 1.18l-1.86 0 0 1.52c0,0.32 -0.26,0.59 -0.59,0.59l-6.12 0c-0.32,0 -0.59,-0.26 -0.59,-0.59l0 -7.22c0,-0.32 0.26,-0.59 0.59,-0.59l1.86 0 0 -1.52c0,-0.32 0.26,-0.59 0.59,-0.59l4.68 0c0.16,0 0.32,0.07 0.44,0.2l1.41 1.6c0.11,0.11 0.18,0.26 0.18,0.43l0 5.59c0,0.32 -0.26,0.59 -0.59,0.59zm-3.03 0l-3.09 0c-0.32,0 -0.59,-0.26 -0.59,-0.59l0 -4.52 -1.27 0 0 6.04 4.95 0 0 -0.93z"/>
</svg>
