<?xml version="1.0" encoding="UTF-8"?>
<svg xmlns="http://www.w3.org/2000/svg" xml:space="preserve" width="24px" height="24px" version="1.1" style="shape-rendering:geometricPrecision; text-rendering:geometricPrecision; image-rendering:optimizeQuality; fill-rule:evenodd; clip-rule:evenodd"
viewBox="0 0 12.93 12.93"
 xmlns:xlink="http://www.w3.org/1999/xlink">
 <defs>
  <style type="text/css">
   <![CDATA[
    .fil0 {fill:white}
   ]]>
  </style>
 </defs>
   <path class="fil0" d="M1.81 0l9.3 0c1,0 1.81,0.82 1.81,1.81l0 9.3c0,1 -0.82,1.81 -1.81,1.81l-9.3 0c-1,0 -1.81,-0.82 -1.81,-1.81l0 -9.3c0,-1 0.82,-1.81 1.81,-1.81zm9.3 1.39l-9.3 0c-0.12,0 -0.23,0.05 -0.3,0.12 -0.08,0.08 -0.12,0.19 -0.12,0.3l0 9.3c0,0.12 0.05,0.22 0.13,0.3 0.08,0.08 0.19,0.13 0.3,0.13l9.3 0c0.12,0 0.23,-0.05 0.3,-0.12l0.01 -0.01c0.07,-0.07 0.12,-0.18 0.12,-0.3l0 -9.3c0,-0.12 -0.05,-0.22 -0.13,-0.3 -0.08,-0.08 -0.18,-0.13 -0.3,-0.13z"/>
   <path class="fil0" d="M5.46 8.13l2.8 0 1.68 0 0 -4.33 -1.01 -1.14 -3.47 0 0 1.38 0 4.1zm5.02 1.07l-1.68 0 0 1.38c0,0.29 -0.24,0.53 -0.53,0.53l-5.55 0c-0.29,0 -0.53,-0.24 -0.53,-0.53l0 -6.54c0,-0.29 0.24,-0.53 0.53,-0.53l1.68 0 0 -1.38c0,-0.29 0.24,-0.53 0.53,-0.53l4.24 0c0.15,0 0.29,0.06 0.4,0.18l1.28 1.45c0.1,0.1 0.17,0.23 0.17,0.39l0 5.06c0,0.29 -0.24,0.53 -0.53,0.53zm-2.75 0l-2.8 0c-0.29,0 -0.53,-0.24 -0.53,-0.53l0 -4.1 -1.15 0 0 5.47 4.48 0 0 -0.84z"/>
</svg>
