<?xml version="1.0" encoding="UTF-8"?>
<svg xmlns="http://www.w3.org/2000/svg" xml:space="preserve" width="24px" height="24px" version="1.1" style="shape-rendering:geometricPrecision; text-rendering:geometricPrecision; image-rendering:optimizeQuality; fill-rule:evenodd; clip-rule:evenodd"
viewBox="0 0 12.09 12.09"
 xmlns:xlink="http://www.w3.org/1999/xlink">
 <defs>
  <style type="text/css">
   <![CDATA[
    .fil0 {fill:white}
   ]]>
  </style>
 </defs>
   <path class="fil0" d="M1.7 0l8.7 0c0.93,0 1.7,0.76 1.7,1.7l0 8.7c0,0.93 -0.76,1.7 -1.7,1.7l-8.7 0c-0.93,0 -1.7,-0.76 -1.7,-1.7l0 -8.7c0,-0.93 0.76,-1.7 1.7,-1.7zm8.7 1.3l-8.7 0c-0.11,0 -0.21,0.04 -0.28,0.12 -0.07,0.07 -0.12,0.17 -0.12,0.28l0 8.7c0,0.11 0.05,0.21 0.12,0.28 0.07,0.07 0.17,0.12 0.28,0.12l8.7 0c0.11,0 0.21,-0.04 0.28,-0.11l0 -0c0.07,-0.07 0.11,-0.17 0.11,-0.28l0 -8.7c0,-0.11 -0.05,-0.21 -0.12,-0.28 -0.07,-0.07 -0.17,-0.12 -0.28,-0.12z"/>
   <path class="fil0" d="M5.4 1.87l1.3 0 0 3.78 1.13 -1.13 0.92 0.92 -2.7 2.7 -2.7 -2.7 0.92 -0.92 1.13 1.13 0 -3.78zm-2.07 5.8l0 1.42 5.44 -0.01 0 -1.42 1.3 0 0 2.06c-0,0.36 -0.29,0.65 -0.65,0.65l-6.73 0.01c-0.36,0 -0.65,-0.29 -0.65,-0.65l0 -2.07 1.3 0z"/>
</svg>
