<?xml version="1.0" encoding="UTF-8"?>
<svg xmlns="http://www.w3.org/2000/svg" xml:space="preserve" width="24px" height="24px" version="1.1" style="shape-rendering:geometricPrecision; text-rendering:geometricPrecision; image-rendering:optimizeQuality; fill-rule:evenodd; clip-rule:evenodd"
viewBox="0 0 15.95 15.95"
 xmlns:xlink="http://www.w3.org/1999/xlink">
 <defs>
  <style type="text/css">
   <![CDATA[
    .str0 {stroke:white;stroke-width:1.54;stroke-miterlimit:22.9256}
    .fil0 {fill:none}
    .fil1 {fill:white}
   ]]>
  </style>
 </defs>
  <path class="fil0 str0" d="M2.79 0.77l10.36 0c1.11,0 2.02,0.91 2.02,2.02l0 10.36c0,1.11 -0.91,2.02 -2.02,2.02l-10.36 0c-1.11,0 -2.02,-0.91 -2.02,-2.02l0 -10.36c0,-1.11 0.91,-2.02 2.02,-2.02z"/>
   <path class="fil1" d="M12.18 5.18l0.84 0 0 0.53 -0.84 0 0 -0.53zm0.84 5.6l0 -5.07 -0.84 0.84 0 4.23 0.84 0zm-2.77 -2.8l-2.27 2.27 -2.27 -2.27 2.27 -2.27 2.27 2.27zm-1.63 2.8l2.35 -2.34 0 -0.92 -2.35 -2.35 -1.29 0 -2.35 2.35 0 0.92 2.34 2.34 1.29 0zm-5.71 -5.6l0.84 0 0 0.53 -0.84 0 0 -0.53zm0.84 5.6l0 -5.07 -0.84 0.84 0 4.23 0.84 0z"/>
</svg>
