<?xml version="1.0" encoding="UTF-8"?>
<svg xmlns="http://www.w3.org/2000/svg" xml:space="preserve" width="24px" height="24px" version="1.1" style="shape-rendering:geometricPrecision; text-rendering:geometricPrecision; image-rendering:optimizeQuality; fill-rule:evenodd; clip-rule:evenodd"
viewBox="0 0 10.69 10.69"
 xmlns:xlink="http://www.w3.org/1999/xlink">
 <defs>
  <style type="text/css">
   <![CDATA[
    .fil0 {fill:white}
   ]]>
  </style>
 </defs>
  <path class="fil0" d="M1.5 0l7.69 0c0.82,0 1.5,0.67 1.5,1.5l0 7.69c0,0.82 -0.67,1.5 -1.5,1.5l-7.69 0c-0.82,0 -1.5,-0.67 -1.5,-1.5l0 -7.69c0,-0.82 0.67,-1.5 1.5,-1.5zm4.46 1.85l0 2.88 2.88 0 0 1.23 -2.88 0 0 2.88 -1.23 0 0 -2.88 -2.88 0 0 -1.23 2.88 0 0 -2.88 1.23 0z"/>
</svg>
